<?xml version="1.0" encoding="UTF-8"?>
<!DOCTYPE svg PUBLIC "-//W3C//DTD SVG 1.1//EN" "http://www.w3.org/Graphics/SVG/1.1/DTD/svg11.dtd">
<svg version="1.1" xmlns="http://www.w3.org/2000/svg" xmlns:xlink="http://www.w3.org/1999/xlink" x="0" y="0" width="1047.5" height="1125" viewBox="0, 0, 1047.5, 1125">
  <g id="Layer_1">
    <path d="M783.378,904.273 L858.775,904.273 C853.833,912.982 851.545,921.505 851.545,931.528 L851.545,1095.017 C851.545,1105.037 853.833,1113.56 858.775,1122.27 L783.378,1122.27 C788.315,1113.56 790.603,1105.037 790.603,1095.017 L790.603,931.528 C790.603,921.505 788.315,912.982 783.378,904.273" fill="#94C555"/>
    <path d="M831.145,904.273 L858.613,904.273 C853.673,912.982 851.385,921.505 851.385,931.528 L851.385,1095.017 C851.385,1105.037 853.673,1113.56 858.613,1122.27 L798.52,1122.27 C838.703,1119.402 838.375,1105.037 838.375,1095.017 L838.375,931.528 C838.375,921.505 836.088,912.982 831.145,904.273" fill="#8BBD4D"/>
    <path d="M809.675,954.41 L809.675,954.41 C817.208,954.41 823.372,948.247 823.372,940.715 C823.372,933.185 817.208,927.02 809.675,927.02 C802.143,927.02 795.982,933.185 795.982,940.715 C795.982,948.247 802.143,954.41 809.675,954.41 z M809.675,960.652 L809.675,960.652 C817.208,960.652 823.372,966.815 823.372,974.345 L823.372,1090.347 C823.372,1097.88 817.208,1104.04 809.675,1104.04 C802.143,1104.04 795.982,1097.88 795.982,1090.347 L795.982,974.345 C795.982,966.815 802.143,960.652 809.675,960.652" fill="#A1CA66"/>
    <path d="M787.04,897.968 L855.11,897.968 L855.11,904.273 L787.04,904.273 z" fill="#E7D383"/>
    <path d="M787.04,902.647 L855.11,902.647 L855.11,904.272 L787.04,904.272 z" fill="#D8C676"/>
    <path d="M787.04,897.968 L855.11,897.968 L855.11,899.59 L787.04,899.59 z" fill="#D8C676"/>
    <path d="M783.378,679.967 L858.775,679.967 C853.833,688.675 851.545,697.2 851.545,707.22 L851.545,870.71 C851.545,880.73 853.833,889.255 858.775,897.967 L783.378,897.967 C788.315,889.255 790.603,880.73 790.603,870.71 L790.603,707.22 C790.603,697.2 788.315,688.675 783.378,679.967" fill="#94C555"/>
    <path d="M831.145,679.967 L858.613,679.967 C853.673,688.675 851.385,697.2 851.385,707.22 L851.385,870.71 C851.385,880.73 853.673,889.255 858.613,897.967 L798.52,897.967 C838.703,895.095 838.375,880.73 838.375,870.71 L838.375,707.22 C838.375,697.2 836.088,688.675 831.145,679.967" fill="#8BBD4D"/>
    <path d="M809.675,730.105 L809.675,730.105 C817.208,730.105 823.372,723.943 823.372,716.41 C823.372,708.878 817.208,702.713 809.675,702.713 C802.143,702.713 795.982,708.878 795.982,716.41 C795.982,723.943 802.143,730.105 809.675,730.105 z M809.675,736.345 L809.675,736.345 C817.208,736.345 823.372,742.508 823.372,750.043 L823.372,866.043 C823.372,873.575 817.208,879.738 809.675,879.738 C802.143,879.738 795.982,873.575 795.982,866.043 L795.982,750.043 C795.982,742.508 802.143,736.345 809.675,736.345" fill="#A1CA66"/>
    <path d="M787.04,673.66 L855.11,673.66 L855.11,679.968 L787.04,679.968 z" fill="#E7D383"/>
    <path d="M787.04,678.343 L855.11,678.343 L855.11,679.968 L787.04,679.968 z" fill="#D8C676"/>
    <path d="M787.04,673.66 L855.11,673.66 L855.11,675.282 L787.04,675.282 z" fill="#D8C676"/>
    <path d="M783.378,455.983 L858.775,455.983 C853.833,464.69 851.545,473.215 851.545,483.235 L851.545,646.728 C851.545,656.745 853.833,665.273 858.775,673.983 L783.378,673.983 C788.315,665.273 790.603,656.745 790.603,646.728 L790.603,483.235 C790.603,473.215 788.315,464.69 783.378,455.983" fill="#94C555"/>
    <path d="M831.305,455.983 L858.775,455.983 C853.833,464.69 851.545,473.215 851.545,483.235 L851.545,646.728 C851.545,656.745 853.833,665.273 858.775,673.983 L798.682,673.983 C838.865,671.113 838.535,656.745 838.535,646.728 L838.535,483.235 C838.535,473.215 836.247,464.69 831.305,455.983" fill="#8BBD4D"/>
    <path d="M809.675,506.12 L809.675,506.12 C817.208,506.12 823.372,499.96 823.372,492.425 C823.372,484.892 817.208,478.73 809.675,478.73 C802.143,478.73 795.982,484.892 795.982,492.425 C795.982,499.96 802.143,506.12 809.675,506.12 z M809.675,512.362 L809.675,512.362 C817.208,512.362 823.372,518.522 823.372,526.057 L823.372,642.057 C823.372,649.587 817.208,655.753 809.675,655.753 C802.143,655.753 795.982,649.587 795.982,642.057 L795.982,526.057 C795.982,518.522 802.143,512.362 809.675,512.362" fill="#A1CA66"/>
    <path d="M787.04,449.675 L855.11,449.675 L855.11,455.982 L787.04,455.982 z" fill="#E7D383"/>
    <path d="M787.04,454.357 L855.11,454.357 L855.11,455.982 L787.04,455.982 z" fill="#D8C676"/>
    <path d="M787.04,449.675 L855.11,449.675 L855.11,451.3 L787.04,451.3 z" fill="#D8C676"/>
    <path d="M783.378,231.675 L858.775,231.675 C853.833,240.385 851.545,248.91 851.545,258.927 L851.545,422.422 C851.545,432.442 853.833,440.965 858.775,449.675 L783.378,449.675 C788.315,440.965 790.603,432.442 790.603,422.422 L790.603,258.927 C790.603,248.91 788.315,240.385 783.378,231.675" fill="#94C555"/>
    <path d="M831.305,231.675 L858.775,231.675 C853.833,240.385 851.545,248.91 851.545,258.927 L851.545,422.422 C851.545,432.442 853.833,440.965 858.775,449.675 L798.682,449.675 C838.865,446.805 838.535,432.442 838.535,422.422 L838.535,258.927 C838.535,248.91 836.247,240.385 831.305,231.675" fill="#8BBD4D"/>
    <path d="M809.675,281.815 L809.675,281.815 C817.208,281.815 823.372,275.652 823.372,268.117 C823.372,260.587 817.208,254.425 809.675,254.425 C802.143,254.425 795.982,260.587 795.982,268.117 C795.982,275.652 802.143,281.815 809.675,281.815 z M809.675,288.057 L809.675,288.057 C817.208,288.057 823.372,294.22 823.372,301.75 L823.372,417.753 C823.372,425.283 817.208,431.448 809.675,431.448 C802.143,431.448 795.982,425.283 795.982,417.753 L795.982,301.75 C795.982,294.22 802.143,288.057 809.675,288.057" fill="#A1CA66"/>
    <path d="M787.04,225.37 L855.11,225.37 L855.11,231.675 L787.04,231.675 z" fill="#E7D383"/>
    <path d="M787.04,230.053 L855.11,230.053 L855.11,231.675 L787.04,231.675 z" fill="#D8C676"/>
    <path d="M787.04,225.37 L855.11,225.37 L855.11,226.995 L787.04,226.995 z" fill="#D8C676"/>
    <path d="M1046.7,442.84 C1008.948,533.49 945.33,552.357 876.903,557.885 C908.558,488.392 961.28,445.205 1046.7,442.84" fill="#8BBD4D"/>
    <path d="M1046.7,442.84 C1028.193,487.277 1003.47,514.455 975.013,531.28 C952.443,539.602 928.228,543.375 903.38,545.38 C921.405,505.807 946.268,474.772 980.103,454.942 C999.723,447.688 1021.823,443.527 1046.7,442.84" fill="#94C555"/>
    <path d="M1037.635,453.643 C1021.8,491.668 995.112,499.583 966.407,501.898 C979.688,472.753 1001.802,454.635 1037.635,453.643" fill="#A1CA66"/>
    <path d="M1046.7,694.223 C1008.948,603.573 945.33,584.705 876.903,579.182 C908.558,648.67 961.28,691.858 1046.7,694.223" fill="#8BBD4D"/>
    <path d="M1046.7,694.223 C1028.193,649.788 1003.47,622.605 975.013,605.785 C952.443,597.46 928.228,593.69 903.38,591.683 C921.405,631.253 946.268,662.288 980.103,682.123 C999.723,689.378 1021.823,693.533 1046.7,694.223" fill="#94C555"/>
    <path d="M1037.635,683.42 C1021.8,645.397 995.112,637.482 966.407,635.165 C979.688,664.315 1001.802,682.43 1037.635,683.42" fill="#A1CA66"/>
    <path d="M783.378,7.37 L858.775,7.37 C853.833,16.08 851.545,24.602 851.545,34.622 L851.545,198.115 C851.545,208.137 853.833,216.658 858.775,225.37 L783.378,225.37 C788.315,216.658 790.603,208.137 790.603,198.115 L790.603,34.622 C790.603,24.602 788.315,16.08 783.378,7.37" fill="#94C555"/>
    <path d="M831.305,7.37 L858.775,7.37 C853.833,16.08 851.545,24.602 851.545,34.622 L851.545,198.115 C851.545,208.137 853.833,216.658 858.775,225.37 L798.682,225.37 C838.865,222.5 838.535,208.137 838.535,198.115 L838.535,34.622 C838.535,24.602 836.247,16.08 831.305,7.37" fill="#8BBD4D"/>
    <path d="M809.675,57.507 L809.675,57.507 C817.208,57.507 823.372,51.345 823.372,43.815 L823.372,43.812 C823.372,36.28 817.208,30.12 809.675,30.12 C802.143,30.12 795.982,36.28 795.982,43.812 L795.982,43.815 C795.982,51.345 802.143,57.507 809.675,57.507 z M809.675,63.75 L809.675,63.75 C817.208,63.75 823.372,69.912 823.372,77.445 L823.372,193.445 C823.372,200.98 817.208,207.143 809.675,207.143 C802.143,207.143 795.982,200.98 795.982,193.445 L795.982,77.445 C795.982,69.912 802.143,63.75 809.675,63.75" fill="#A1CA66"/>
    <path d="M787.04,1.063 L855.11,1.063 L855.11,7.37 L787.04,7.37 z" fill="#E7D383"/>
    <path d="M787.04,5.745 L855.11,5.745 L855.11,7.368 L787.04,7.368 z" fill="#D8C676"/>
    <path d="M787.04,1.063 L855.11,1.063 L855.11,2.688 L787.04,2.688 z" fill="#D8C676"/>
    <path d="M607.258,223.005 C645.008,313.655 708.628,332.522 777.055,338.047 C745.4,268.557 692.677,225.37 607.258,223.005" fill="#8BBD4D"/>
    <path d="M607.257,223.005 C625.765,267.44 650.487,294.622 678.942,311.443 C701.515,319.768 725.73,323.538 750.577,325.545 C732.552,285.975 707.69,254.94 673.852,235.105 C654.235,227.85 632.135,223.695 607.257,223.005" fill="#94C555"/>
    <path d="M616.323,233.808 C632.157,271.833 658.845,279.745 687.547,282.062 C674.27,252.913 652.152,234.798 616.323,233.808" fill="#A1CA66"/>
    <path d="M607.258,474.388 C645.008,383.737 708.628,364.87 777.055,359.345 C745.4,428.835 692.677,472.022 607.258,474.388" fill="#8BBD4D"/>
    <path d="M607.257,474.388 C625.765,429.95 650.487,402.772 678.942,385.95 C701.515,377.625 725.73,373.855 750.577,371.848 C732.552,411.42 707.69,442.455 673.852,462.285 C654.235,469.543 632.135,473.7 607.257,474.388" fill="#94C555"/>
    <path d="M616.323,463.588 C632.157,425.562 658.845,417.648 687.547,415.33 C674.27,444.478 652.152,462.592 616.323,463.588" fill="#A1CA66"/>
    <path d="M148.56,904.27 L223.958,904.27 C219.015,912.982 216.728,921.505 216.728,931.525 L216.728,1095.017 C216.728,1105.037 219.015,1113.562 223.958,1122.27 L148.56,1122.27 C153.498,1113.562 155.785,1105.037 155.785,1095.017 L155.785,931.525 C155.785,921.505 153.498,912.982 148.56,904.27" fill="#B6D477"/>
    <path d="M196.327,904.27 L223.795,904.27 C218.855,912.982 216.568,921.505 216.568,931.525 L216.568,1095.017 C216.568,1105.037 218.855,1113.562 223.795,1122.27 L163.7,1122.27 C203.887,1119.402 203.555,1105.037 203.555,1095.017 L203.555,931.525 C203.555,921.505 201.27,912.982 196.327,904.27" fill="#A1CA66"/>
    <path d="M174.857,954.41 L174.857,954.41 C182.39,954.41 188.555,948.247 188.555,940.715 C188.555,933.182 182.39,927.02 174.857,927.02 C167.325,927.02 161.165,933.182 161.165,940.715 C161.165,948.247 167.325,954.41 174.857,954.41 z M174.857,960.652 L174.857,960.652 C182.39,960.652 188.555,966.815 188.555,974.345 L188.555,1090.347 C188.555,1097.88 182.39,1104.04 174.857,1104.04 C167.325,1104.04 161.165,1097.88 161.165,1090.347 L161.165,974.345 C161.165,966.815 167.325,960.652 174.857,960.652" fill="#C6DB8D"/>
    <path d="M152.223,897.968 L220.295,897.968 L220.295,904.273 L152.223,904.273 z" fill="#E7D383"/>
    <path d="M152.223,902.647 L220.295,902.647 L220.295,904.272 L152.223,904.272 z" fill="#D8C676"/>
    <path d="M152.223,897.968 L220.295,897.968 L220.295,899.59 L152.223,899.59 z" fill="#D8C676"/>
    <path d="M148.56,679.967 L223.958,679.967 C219.015,688.675 216.728,697.2 216.728,707.22 L216.728,870.71 C216.728,880.73 219.015,889.255 223.958,897.967 L148.56,897.967 C153.498,889.255 155.785,880.73 155.785,870.71 L155.785,707.22 C155.785,697.2 153.498,688.675 148.56,679.967" fill="#B6D477"/>
    <path d="M196.327,679.967 L223.795,679.967 C218.855,688.675 216.568,697.2 216.568,707.22 L216.568,870.71 C216.568,880.73 218.855,889.255 223.795,897.967 L163.7,897.967 C203.887,895.095 203.555,880.73 203.555,870.71 L203.555,707.22 C203.555,697.2 201.27,688.675 196.327,679.967" fill="#A1CA66"/>
    <path d="M174.857,730.103 L174.857,730.103 C182.39,730.103 188.555,723.943 188.555,716.41 C188.555,708.878 182.39,702.713 174.857,702.713 C167.325,702.713 161.165,708.878 161.165,716.41 C161.165,723.943 167.325,730.103 174.857,730.103 z M174.857,736.345 L174.857,736.345 C182.39,736.345 188.555,742.508 188.555,750.043 L188.555,866.043 C188.555,873.575 182.39,879.738 174.857,879.738 C167.325,879.738 161.165,873.575 161.165,866.043 L161.165,750.043 C161.165,742.508 167.325,736.345 174.857,736.345" fill="#C6DB8D"/>
    <path d="M152.223,673.66 L220.295,673.66 L220.295,679.968 L152.223,679.968 z" fill="#E7D383"/>
    <path d="M152.223,678.343 L220.295,678.343 L220.295,679.968 L152.223,679.968 z" fill="#D8C676"/>
    <path d="M152.223,673.66 L220.295,673.66 L220.295,675.282 L152.223,675.282 z" fill="#D8C676"/>
    <path d="M148.56,455.983 L223.958,455.983 C219.015,464.69 216.728,473.215 216.728,483.235 L216.728,646.728 C216.728,656.745 219.015,665.273 223.958,673.983 L148.56,673.983 C153.498,665.273 155.785,656.745 155.785,646.728 L155.785,483.235 C155.785,473.215 153.498,464.69 148.56,455.983" fill="#B6D477"/>
    <path d="M196.49,455.983 L223.957,455.983 C219.015,464.69 216.727,473.215 216.727,483.235 L216.727,646.728 C216.727,656.745 219.015,665.273 223.957,673.983 L163.863,673.983 C204.048,671.113 203.715,656.745 203.715,646.728 L203.715,483.235 C203.715,473.215 201.43,464.69 196.49,455.983" fill="#A1CA66"/>
    <path d="M174.857,506.12 L174.857,506.12 C182.39,506.12 188.555,499.96 188.555,492.425 C188.555,484.893 182.39,478.728 174.857,478.728 C167.325,478.728 161.165,484.893 161.165,492.425 C161.165,499.96 167.325,506.12 174.857,506.12 z M174.857,512.362 L174.857,512.362 C182.39,512.362 188.555,518.523 188.555,526.057 L188.555,642.057 C188.555,649.588 182.39,655.753 174.857,655.753 C167.325,655.753 161.165,649.588 161.165,642.057 L161.165,526.057 C161.165,518.523 167.325,512.362 174.857,512.362" fill="#C6DB8D"/>
    <path d="M152.223,449.675 L220.295,449.675 L220.295,455.982 L152.223,455.982 z" fill="#E7D383"/>
    <path d="M152.223,454.357 L220.295,454.357 L220.295,455.982 L152.223,455.982 z" fill="#D8C676"/>
    <path d="M152.223,449.675 L220.295,449.675 L220.295,451.3 L152.223,451.3 z" fill="#D8C676"/>
    <path d="M148.56,231.675 L223.958,231.675 C219.015,240.382 216.728,248.91 216.728,258.927 L216.728,422.422 C216.728,432.442 219.015,440.965 223.958,449.675 L148.56,449.675 C153.498,440.965 155.785,432.442 155.785,422.422 L155.785,258.927 C155.785,248.91 153.498,240.382 148.56,231.675" fill="#B6D477"/>
    <path d="M196.49,231.675 L223.957,231.675 C219.015,240.382 216.727,248.91 216.727,258.927 L216.727,422.422 C216.727,432.442 219.015,440.965 223.957,449.675 L163.863,449.675 C204.048,446.805 203.715,432.442 203.715,422.422 L203.715,258.927 C203.715,248.91 201.43,240.382 196.49,231.675" fill="#A1CA66"/>
    <path d="M174.857,281.815 L174.857,281.815 C182.39,281.815 188.555,275.652 188.555,268.117 C188.555,260.587 182.39,254.425 174.857,254.425 C167.325,254.425 161.165,260.587 161.165,268.117 C161.165,275.652 167.325,281.815 174.857,281.815 z M174.857,288.057 L174.857,288.057 C182.39,288.057 188.555,294.22 188.555,301.75 L188.555,417.753 C188.555,425.283 182.39,431.448 174.857,431.448 C167.325,431.448 161.165,425.283 161.165,417.753 L161.165,301.75 C161.165,294.22 167.325,288.057 174.857,288.057" fill="#C6DB8D"/>
    <path d="M152.223,225.37 L220.295,225.37 L220.295,231.675 L152.223,231.675 z" fill="#E7D383"/>
    <path d="M152.223,230.053 L220.295,230.053 L220.295,231.675 L152.223,231.675 z" fill="#D8C676"/>
    <path d="M152.223,225.37 L220.295,225.37 L220.295,226.995 L152.223,226.995 z" fill="#D8C676"/>
    <path d="M353.585,750.977 C326.88,815.102 281.875,828.45 233.47,832.357 C255.865,783.2 293.16,752.65 353.585,750.977" fill="#8BBD4D"/>
    <path d="M353.585,750.977 C340.493,782.41 323.003,801.638 302.873,813.537 C286.905,819.427 269.778,822.095 252.2,823.513 C264.95,795.52 282.54,773.568 306.475,759.54 C320.353,754.407 335.988,751.463 353.585,750.977" fill="#94C555"/>
    <path d="M347.173,758.615 C335.973,785.515 317.092,791.115 296.788,792.755 C306.182,772.135 321.825,759.32 347.173,758.615" fill="#A1CA66"/>
    <path d="M353.585,956.148 C326.88,892.023 281.875,878.675 233.47,874.768 C255.865,923.925 293.16,954.475 353.585,956.148" fill="#8BBD4D"/>
    <path d="M353.585,956.147 C340.493,924.715 323.003,905.487 302.873,893.587 C286.905,887.697 269.778,885.032 252.2,883.612 C264.95,911.605 282.54,933.557 306.475,947.587 C320.353,952.72 335.988,955.662 353.585,956.147" fill="#94C555"/>
    <path d="M347.173,948.508 C335.973,921.61 317.092,916.01 296.788,914.37 C306.182,934.99 321.825,947.805 347.173,948.508" fill="#A1CA66"/>
    <path d="M415.747,854.235 C348.318,898.48 296.367,882 247.298,854.235 C300.835,821.568 356.578,816.49 415.747,854.235" fill="#8BBD4D"/>
    <path d="M415.747,854.235 C382.693,875.922 353.36,883.013 326.263,881.343 C307.08,876.605 288.88,868.013 271.06,857.93 C301.545,839.33 332.747,829.68 364.89,831.782 C381.573,835.888 398.513,843.24 415.747,854.235" fill="#94C555"/>
    <path d="M404.607,857.403 C376.322,875.963 354.533,869.048 333.947,857.403 C356.408,843.703 379.785,841.57 404.607,857.403" fill="#A1CA66"/>
    <path d="M-0,670.055 C30.21,742.595 81.122,757.695 135.88,762.117 C110.548,706.508 68.357,671.948 -0,670.055" fill="#8BBD4D"/>
    <path d="M0,670.055 C14.81,705.615 34.595,727.365 57.368,740.827 C75.43,747.487 94.808,750.505 114.692,752.112 C100.265,720.445 80.37,695.607 53.292,679.74 C37.592,673.932 19.908,670.605 0,670.055" fill="#94C555"/>
    <path d="M7.255,678.7 C19.925,709.13 41.283,715.463 64.253,717.318 C53.625,693.99 35.927,679.493 7.255,678.7" fill="#A1CA66"/>
    <path d="M-0,871.222 C30.21,798.68 81.122,783.582 135.88,779.162 C110.548,834.77 68.357,869.332 -0,871.222" fill="#8BBD4D"/>
    <path d="M0,871.223 C14.81,835.662 34.595,813.912 57.368,800.45 C75.43,793.79 94.808,790.773 114.692,789.165 C100.265,820.833 80.37,845.67 53.292,861.537 C37.592,867.345 19.908,870.672 0,871.223" fill="#94C555"/>
    <path d="M7.255,862.58 C19.925,832.152 41.283,825.815 64.253,823.962 C53.625,847.287 35.927,861.785 7.255,862.58" fill="#A1CA66"/>
    <path d="M148.56,7.37 L223.958,7.37 C219.015,16.08 216.728,24.602 216.728,34.622 L216.728,198.115 C216.728,208.137 219.015,216.658 223.958,225.37 L148.56,225.37 C153.498,216.658 155.785,208.137 155.785,198.115 L155.785,34.622 C155.785,24.602 153.498,16.08 148.56,7.37" fill="#B6D477"/>
    <path d="M196.49,7.37 L223.957,7.37 C219.015,16.08 216.727,24.602 216.727,34.622 L216.727,198.115 C216.727,208.137 219.015,216.658 223.957,225.37 L163.863,225.37 C204.048,222.5 203.715,208.137 203.715,198.115 L203.715,34.622 C203.715,24.602 201.43,16.08 196.49,7.37" fill="#A1CA66"/>
    <path d="M174.857,57.507 L174.857,57.507 C182.39,57.507 188.555,51.345 188.555,43.815 L188.555,43.812 C188.555,36.283 182.39,30.12 174.857,30.12 C167.325,30.12 161.165,36.283 161.165,43.812 L161.165,43.815 C161.165,51.345 167.325,57.507 174.857,57.507 z M174.857,63.753 L174.857,63.753 C182.39,63.753 188.555,69.912 188.555,77.445 L188.555,193.445 C188.555,200.977 182.39,207.143 174.857,207.143 C167.325,207.143 161.165,200.977 161.165,193.445 L161.165,77.445 C161.165,69.912 167.325,63.753 174.857,63.753" fill="#C6DB8D"/>
    <path d="M152.223,1.063 L220.295,1.063 L220.295,7.37 L152.223,7.37 z" fill="#E7D383"/>
    <path d="M152.223,5.745 L220.295,5.745 L220.295,7.368 L152.223,7.368 z" fill="#D8C676"/>
    <path d="M152.223,1.063 L220.295,1.063 L220.295,2.688 L152.223,2.688 z" fill="#D8C676"/>
    <path d="M6.358,273.217 C36.568,345.762 87.48,360.86 142.238,365.283 C116.905,309.67 74.717,275.11 6.358,273.217" fill="#8BBD4D"/>
    <path d="M6.358,273.217 C21.168,308.78 40.952,330.53 63.725,343.992 C81.787,350.652 101.165,353.67 121.05,355.277 C106.625,323.612 86.728,298.772 59.65,282.902 C43.952,277.098 26.268,273.77 6.358,273.217" fill="#94C555"/>
    <path d="M13.61,281.863 C26.285,312.293 47.643,318.625 70.61,320.483 C59.983,297.155 42.285,282.658 13.61,281.863" fill="#A1CA66"/>
    <path d="M6.358,474.388 C36.568,401.845 87.48,386.745 142.238,382.325 C116.905,437.935 74.717,472.495 6.358,474.388" fill="#8BBD4D"/>
    <path d="M6.358,474.388 C21.168,438.825 40.952,417.075 63.725,403.615 C81.787,396.952 101.165,393.935 121.05,392.332 C106.625,423.997 86.728,448.832 59.65,464.702 C43.952,470.508 26.268,473.835 6.358,474.388" fill="#94C555"/>
    <path d="M13.61,465.745 C26.285,435.315 47.643,428.983 70.61,427.128 C59.983,450.453 42.285,464.95 13.61,465.745" fill="#A1CA66"/>
    <path d="M469.267,849.753 L563.522,849.753 C557.347,860.64 554.487,871.298 554.487,883.823 L554.487,1088.2 C554.487,1100.728 557.347,1111.383 563.522,1122.27 L469.267,1122.27 C475.445,1111.383 478.302,1100.728 478.302,1088.2 L478.302,883.823 C478.302,871.298 475.445,860.64 469.267,849.753" fill="#7FB141"/>
    <path d="M528.985,849.753 L563.32,849.753 C557.145,860.64 554.287,871.298 554.287,883.823 L554.287,1088.2 C554.287,1100.728 557.145,1111.383 563.32,1122.27 L488.2,1122.27 C538.432,1118.685 538.02,1100.728 538.02,1088.2 L538.02,883.823 C538.02,871.298 535.16,860.64 528.985,849.753" fill="#72A341"/>
    <path d="M502.145,912.43 L502.145,912.43 C511.562,912.43 519.265,904.725 519.265,895.31 C519.265,885.895 511.562,878.193 502.145,878.193 C492.73,878.193 485.027,885.895 485.027,895.31 C485.027,904.725 492.73,912.43 502.145,912.43 z M502.145,920.235 L502.145,920.235 C511.562,920.235 519.265,927.938 519.265,937.355 L519.265,1082.365 C519.265,1091.78 511.562,1099.482 502.145,1099.482 C492.73,1099.482 485.027,1091.78 485.027,1082.365 L485.027,937.355 C485.027,927.938 492.73,920.235 502.145,920.235" fill="#94C555"/>
    <path d="M473.85,841.867 L558.943,841.867 L558.943,849.755 L473.85,849.755 z" fill="#E7D383"/>
    <path d="M473.85,847.722 L558.943,847.722 L558.943,849.755 L473.85,849.755 z" fill="#D8C676"/>
    <path d="M473.85,841.868 L558.943,841.868 L558.943,843.9 L473.85,843.9 z" fill="#D8C676"/>
    <path d="M469.267,569.347 L563.522,569.347 C557.347,580.237 554.487,590.892 554.487,603.417 L554.487,807.8 C554.487,820.325 557.347,830.982 563.522,841.867 L469.267,841.867 C475.445,830.982 478.302,820.325 478.302,807.8 L478.302,603.417 C478.302,590.892 475.445,580.237 469.267,569.347" fill="#7FB141"/>
    <path d="M528.985,569.347 L563.32,569.347 C557.145,580.237 554.287,590.892 554.287,603.417 L554.287,807.8 C554.287,820.325 557.145,830.982 563.32,841.867 L488.2,841.867 C538.432,838.282 538.02,820.325 538.02,807.8 L538.02,603.417 C538.02,590.892 535.16,580.237 528.985,569.347" fill="#72A341"/>
    <path d="M502.145,632.028 L502.145,632.028 C511.562,632.028 519.265,624.325 519.265,614.908 C519.265,605.49 511.562,597.785 502.145,597.785 C492.73,597.785 485.027,605.49 485.027,614.908 C485.027,624.325 492.73,632.028 502.145,632.028 z M502.145,639.833 L502.145,639.833 C511.562,639.833 519.265,647.535 519.265,656.95 L519.265,801.96 C519.265,811.378 511.562,819.08 502.145,819.08 C492.73,819.08 485.027,811.378 485.027,801.96 L485.027,656.95 C485.027,647.535 492.73,639.833 502.145,639.833" fill="#94C555"/>
    <path d="M473.85,561.468 L558.943,561.468 L558.943,569.348 L473.85,569.348 z" fill="#E7D383"/>
    <path d="M473.85,567.32 L558.943,567.32 L558.943,569.348 L473.85,569.348 z" fill="#D8C676"/>
    <path d="M473.85,561.468 L558.943,561.468 L558.943,563.497 L473.85,563.497 z" fill="#D8C676"/>
    <path d="M469.267,289.348 L563.522,289.348 C557.347,300.237 554.487,310.892 554.487,323.417 L554.487,527.8 C554.487,540.325 557.347,550.98 563.522,561.867 L469.267,561.867 C475.445,550.98 478.302,540.325 478.302,527.8 L478.302,323.417 C478.302,310.892 475.445,300.237 469.267,289.348" fill="#7FB141"/>
    <path d="M529.188,289.348 L563.523,289.348 C557.348,300.237 554.487,310.892 554.487,323.417 L554.487,527.8 C554.487,540.325 557.348,550.98 563.523,561.867 L488.4,561.867 C538.635,558.28 538.223,540.325 538.223,527.8 L538.223,323.417 C538.223,310.892 535.365,300.237 529.188,289.348" fill="#72A341"/>
    <path d="M502.145,352.027 L502.145,352.027 C511.562,352.027 519.265,344.323 519.265,334.908 L519.265,334.905 C519.265,325.49 511.562,317.785 502.145,317.785 C492.73,317.785 485.027,325.49 485.027,334.905 L485.027,334.908 C485.027,344.323 492.73,352.027 502.145,352.027 z M502.145,359.833 L502.145,359.833 C511.562,359.833 519.265,367.533 519.265,376.95 L519.265,521.96 C519.265,531.375 511.562,539.08 502.145,539.08 C492.73,539.08 485.027,531.375 485.027,521.96 L485.027,376.95 C485.027,367.533 492.73,359.833 502.145,359.833" fill="#94C555"/>
    <path d="M473.85,281.465 L558.943,281.465 L558.943,289.348 L473.85,289.348 z" fill="#E7D383"/>
    <path d="M473.85,287.318 L558.943,287.318 L558.943,289.348 L473.85,289.348 z" fill="#D8C676"/>
    <path d="M473.85,281.465 L558.943,281.465 L558.943,283.495 L473.85,283.495 z" fill="#D8C676"/>
    <path d="M469.267,8.947 L563.522,8.947 C557.347,19.835 554.487,30.49 554.487,43.015 L554.487,247.395 C554.487,259.922 557.347,270.58 563.522,281.465 L469.267,281.465 C475.445,270.58 478.302,259.922 478.302,247.395 L478.302,43.015 C478.302,30.49 475.445,19.835 469.267,8.947" fill="#7FB141"/>
    <path d="M529.188,8.947 L563.523,8.947 C557.348,19.835 554.487,30.49 554.487,43.015 L554.487,247.395 C554.487,259.922 557.348,270.58 563.523,281.465 L488.4,281.465 C538.635,277.88 538.223,259.922 538.223,247.395 L538.223,43.015 C538.223,30.49 535.365,19.835 529.188,8.947" fill="#72A341"/>
    <path d="M502.145,71.625 L502.145,71.625 C511.562,71.625 519.265,63.92 519.265,54.505 L519.265,54.502 C519.265,45.087 511.562,37.385 502.145,37.385 C492.73,37.385 485.027,45.087 485.027,54.502 L485.027,54.505 C485.027,63.92 492.73,71.625 502.145,71.625 z M502.145,79.427 L502.145,79.427 C511.562,79.427 519.265,87.132 519.265,96.547 L519.265,241.56 C519.265,250.975 511.562,258.677 502.145,258.677 C492.73,258.677 485.027,250.975 485.027,241.56 L485.027,96.547 C485.027,87.132 492.73,79.427 502.145,79.427" fill="#94C555"/>
    <path d="M473.85,1.062 L558.943,1.062 L558.943,8.947 L473.85,8.947 z" fill="#E7D383"/>
    <path d="M473.85,6.918 L558.943,6.918 L558.943,8.948 L473.85,8.948 z" fill="#D8C676"/>
    <path d="M473.85,1.063 L558.943,1.063 L558.943,3.095 L473.85,3.095 z" fill="#D8C676"/>
    <path d="M243.067,324.065 C290.258,437.383 369.788,460.97 455.327,467.878 C415.758,381.01 349.848,327.02 243.067,324.065" fill="#72A341"/>
    <path d="M243.067,324.065 C266.198,379.613 297.105,413.592 332.677,434.62 C360.897,445.027 391.165,449.74 422.23,452.25 C399.693,402.783 368.612,363.983 326.315,339.193 C301.792,330.122 274.165,324.925 243.067,324.065" fill="#7FB141"/>
    <path d="M254.395,337.568 C274.193,385.1 307.553,394.995 343.432,397.89 C326.835,361.453 299.19,338.807 254.395,337.568" fill="#94C555"/>
    <path d="M243.067,686.635 C290.258,573.312 369.785,549.73 455.327,542.823 C415.755,629.69 349.848,683.68 243.067,686.635" fill="#72A341"/>
    <path d="M243.067,686.635 C266.197,631.085 297.105,597.108 332.68,576.078 C360.895,565.673 391.165,560.96 422.23,558.45 C399.695,607.918 368.612,646.718 326.315,671.508 C301.792,680.575 274.165,685.775 243.067,686.635" fill="#7FB141"/>
    <path d="M254.398,673.133 C274.193,625.598 307.553,615.705 343.432,612.805 C326.835,649.245 299.19,671.893 254.398,673.133" fill="#94C555"/>
    <path d="M133.215,506.535 C252.372,584.725 344.175,555.602 430.892,506.535 C336.285,448.81 237.777,439.837 133.215,506.535" fill="#72A341"/>
    <path d="M133.215,506.535 C191.625,544.865 243.462,557.395 291.348,554.443 C325.247,546.068 357.41,530.888 388.902,513.068 C335.025,480.193 279.888,463.145 223.085,466.863 C193.605,474.115 163.667,487.11 133.215,506.535" fill="#7FB141"/>
    <path d="M152.9,512.138 C202.882,544.935 241.393,532.717 277.762,512.135 C238.08,487.92 196.76,484.158 152.9,512.138" fill="#94C555"/>
    <path d="M776.698,571.83 C729.505,685.15 649.975,708.733 564.432,715.64 C604.008,628.773 669.915,574.783 776.698,571.83" fill="#679540"/>
    <path d="M776.698,571.83 C753.565,627.375 722.658,661.355 687.083,682.385 C658.865,692.79 628.595,697.503 597.535,700.01 C620.065,650.545 651.148,611.745 693.445,586.955 C717.97,577.885 745.595,572.688 776.698,571.83" fill="#72A341"/>
    <path d="M765.365,585.33 C745.57,632.865 712.21,642.758 676.328,645.657 C692.927,609.217 720.573,586.57 765.365,585.33" fill="#7FB141"/>
    <path d="M776.698,886.08 C729.505,772.758 649.975,749.173 564.432,742.265 C604.008,829.135 669.915,883.123 776.698,886.08" fill="#679540"/>
    <path d="M776.698,886.08 C753.565,830.527 722.658,796.55 687.083,775.52 C658.865,765.115 628.595,760.402 597.535,757.892 C620.065,807.362 651.148,846.157 693.445,870.95 C717.97,880.02 745.595,885.217 776.698,886.08" fill="#72A341"/>
    <path d="M765.365,872.575 C745.57,825.042 712.21,815.147 676.328,812.25 C692.927,848.69 720.573,871.335 765.365,872.575" fill="#7FB141"/>
  </g>
</svg>
