<?xml version='1.0' encoding='iso-8859-1'?>
<!-- Uploaded to: SVG Repo, www.svgrepo.com, Generator: SVG Repo Mixer Tools -->
<svg fill="#000000" height="800px" width="800px" version="1.1" xmlns="http://www.w3.org/2000/svg" viewBox="0 0 463.022 463.022" xmlns:xlink="http://www.w3.org/1999/xlink" enable-background="new 0 0 463.022 463.022">
  <path d="m444.532,292.464c-9.366-8.133-21.899-16.701-36.782-25.195 23.356-5.29 52.545-15.881 52.545-35.758 0-19.872-29.157-30.462-52.539-35.757 15.071-8.601 27.719-17.275 37.108-25.485 15.16-13.256 20.869-24.749 16.971-34.161-8.19-19.77-51.16-11.916-80.423-3.925 12.796-20.284 25.928-48.393 11.874-62.446-14.048-14.05-42.109-0.963-62.448,11.873 7.91-28.998 15.876-72.22-3.923-80.422-9.425-3.904-20.935,1.826-34.211,17.028-8.177,9.363-16.811,21.954-25.372,36.945-7.439-33.228-20.283-52.433-35.819-52.433-19.858,0-30.444,29.015-35.761,52.541-9.402-16.464-18.878-30.025-27.637-39.51-12.333-13.357-23.1-18.256-32.005-14.57-9.055,3.75-13.189,15.146-12.287,33.872 0.615,12.777 3.49,28.714 8.36,46.545-20.384-12.869-48.4-25.913-62.444-11.869-14.051,14.051-0.942,42.135 11.873,62.447-29.159-7.96-72.229-15.857-80.422,3.925-3.722,8.985 1.304,19.866 14.937,32.342 9.457,8.655 22.847,17.981 39.043,27.236-33.24,7.433-52.44,20.271-52.44,35.824 0,19.866 29.096,30.454 52.54,35.759-14.974,8.545-27.563,17.165-36.941,25.335-15.287,13.32-21.053,24.863-17.14,34.31 3.415,8.245 13.173,12.406 29.046,12.406 2.201,0 4.52-0.08 6.955-0.24 12.467-0.82 27.602-3.637 44.411-8.231-12.901,20.429-25.901,48.398-11.864,62.436 4.294,4.294 9.902,6.046 16.2,6.046 14.323,0 32.199-9.067 46.241-17.92-4.487,16.415-7.286,31.249-8.178,43.583-1.482,20.502 2.591,32.897 12.108,36.839 1.912,0.792 3.91,1.187 5.991,1.187 8.385,0 18.124-6.419 29.046-19.17 7.976-9.312 16.331-21.593 24.606-36.096 5.31,23.481 15.898,52.539 35.759,52.539 19.869,0 30.457-29.1 35.762-52.553 13.459,23.559 35.041,55.277 53.666,55.276 2.031,0 4.028-0.377 5.975-1.184 9.4-3.894 13.492-16.033 12.161-36.081-0.827-12.456-3.641-27.563-8.226-44.338 14.045,8.856 31.916,17.917 46.235,17.917 6.297,0 11.908-1.753 16.202-6.047 14.05-14.05 0.953-42.122-11.873-62.447 15.578,4.252 35.146,8.492 51.238,8.491 14.001,0 25.372-3.211 29.184-12.416 3.927-9.477-1.895-21.068-17.302-34.448zm-116.593,7.575c1.056-9.362-1.094-20.174-6.411-31.213 11.424-3.993 20.69-10.11 26.641-17.583 36.821,19.478 51.935,40.592 48.573,48.709-3.384,8.171-28.987,12.364-68.803,0.087zm-27.987,96.703c-8.229,3.412-29.244-11.74-48.704-48.576 7.47-5.951 13.586-15.215 17.578-26.636 9.224,4.448 18.284,6.694 26.474,6.694 1.618,0 3.198-0.095 4.743-0.27 12.281,39.807 8.121,65.386-0.091,68.788zm-136.881,0c-8.237-3.412-12.38-28.988-0.086-68.806 1.543,0.174 3.123,0.268 4.739,0.268 8.191,0 17.255-2.239 26.472-6.676 3.992,11.422 10.108,20.687 17.578,26.639-19.467,36.825-40.524,51.961-48.703,48.575zm-96.789-96.79c-3.391-8.187 11.749-29.237 48.576-48.704 5.951,7.47 15.214,13.585 26.635,17.577-5.323,11.044-7.475,21.853-6.417,31.215-39.809,12.276-65.407,8.09-68.794-0.088zm0-136.881c3.41-8.233 28.97-12.377 68.764-0.098-1.067,9.363 1.09,20.168 6.437,31.229-11.416,3.992-20.677,10.106-26.625,17.575-36.824-19.473-51.95-40.561-48.576-48.706zm96.789-96.789c4.469-1.851 12.202,1.775 20.684,9.702 9.556,8.931 19.425,22.641 28.023,38.872-7.469,5.949-13.583,15.209-17.576,26.626-11.06-5.343-21.866-7.496-31.231-6.43-12.259-39.798-8.036-65.4 0.1-68.77zm136.881,0c8.168,3.383 12.365,28.991 0.084,68.811-9.362-1.053-20.176,1.094-31.21,6.404-3.993-11.424-10.11-20.691-17.582-26.642 19.477-36.822 40.591-51.937 48.708-48.573zm96.79,96.789c3.4,8.209-11.745,29.24-48.576,48.704-5.951-7.471-15.216-13.586-26.638-17.578 5.301-11.025 7.442-21.843 6.392-31.206 39.825-12.293 65.42-8.133 68.822,0.08zm-88.18,145.49c-6.953,6.952-21.076,6.066-35.969-1.953 0.886-5.365 1.359-11.013 1.359-16.864 0-5.895-0.488-11.674-1.435-17.228 5.554,0.946 11.332,1.435 17.228,1.435 5.853,0 11.502-0.474 16.869-1.36 8.007,14.885 8.88,29.038 1.948,35.97zm-118.13-1.946c-14.881,8.005-29.045,8.87-35.971,1.946-6.945-6.945-6.064-21.08 1.952-35.969 5.366,0.886 11.014,1.359 16.865,1.359 5.895,0 11.673-0.488 17.228-1.435-0.946,5.554-1.435,11.333-1.435,17.228 0.001,5.854 0.475,11.504 1.361,16.871zm-67.885-75.103c0-8.897 8.405-15.269 13.415-18.275 4.934-2.96 10.722-5.254 17.057-6.806 0.892-0.038 1.784-0.226 2.636-0.593 5.568-1.158 11.506-1.765 17.625-1.765 7.581,0 14.877,0.939 21.584,2.721 0.259,0.687 0.527,1.367 0.802,2.041-4.168,6.565-6.594,14.341-6.594,22.677 0,8.336 2.425,16.112 6.594,22.677-0.276,0.674-0.544,1.354-0.803,2.041-6.707,1.782-14.004,2.721-21.584,2.721-14.215,0-27.468-3.255-37.318-9.165-5.009-3.006-13.414-9.377-13.414-18.274zm31.915-77.05c6.867-6.864 21.223-5.93 35.967,1.965-0.884,5.362-1.357,11.005-1.357,16.852 0,5.895 0.488,11.673 1.435,17.228-5.555-0.947-11.333-1.435-17.228-1.435-5.847,0-11.491,0.472-16.853,1.357-7.899-14.748-8.837-29.095-1.964-35.967zm49.61,77.05c0-15.13 12.309-27.439 27.439-27.439s27.439,12.309 27.439,27.439-12.309,27.439-27.439,27.439-27.439-12.309-27.439-27.439zm68.519-75.106c14.879-8.001 29.052-8.863 35.971-1.944 6.898,6.898 6.046,21.103-1.944,35.971-5.368-0.887-11.019-1.361-16.874-1.361-5.895,0-11.673,0.488-17.228,1.435 0.947-5.555 1.435-11.333 1.435-17.228 5.68434e-14-5.854-0.474-11.505-1.36-16.873zm17.153,102.545c-7.582,0-14.878-0.938-21.585-2.721-0.259-0.687-0.527-1.367-0.802-2.041 4.169-6.566 6.594-14.341 6.594-22.678 0-8.336-2.426-16.112-6.594-22.677 0.275-0.674 0.544-1.354 0.802-2.041 6.707-1.782 14.004-2.721 21.584-2.721 14.215,0 27.468,3.255 37.318,9.165 5.01,3.006 13.415,9.377 13.415,18.275s-8.405,15.269-13.415,18.275c-9.849,5.909-23.102,9.164-37.317,9.164zm-39.957-122.99c5.91,9.85 9.165,23.103 9.165,37.318 0,7.58-0.939,14.877-2.721,21.584-0.687,0.259-1.367,0.527-2.041,0.803-6.565-4.168-14.341-6.594-22.677-6.594-8.336,0-16.112,2.426-22.677,6.594-0.674-0.276-1.354-0.544-2.041-0.802-1.782-6.707-2.721-14.004-2.721-21.584 0-14.215 3.255-27.468 9.165-37.318 3.006-5.01 9.377-13.415 18.275-13.415s15.266,8.405 18.273,13.414zm-36.55,191.101c-5.91-9.85-9.165-23.103-9.165-37.318 0-7.581 0.939-14.877 2.721-21.584 0.687-0.259 1.367-0.527 2.041-0.802 6.565,4.168 14.341,6.594 22.677,6.594 8.336,0 16.112-2.426 22.678-6.594 0.674,0.275 1.354,0.544 2.041,0.802 1.782,6.707 2.721,14.003 2.721,21.585 0,14.215-3.255,27.468-9.165,37.318-3.006,5.01-9.377,13.415-18.275,13.415s-15.268-8.406-18.274-13.416zm232.058-95.55c0,6.99-19.104,19.222-61.494,24.81-8.635-6.734-18.609-13.046-29.015-18.544 0.449-2.042 0.691-4.132 0.691-6.266 0-2.134-0.241-4.225-0.691-6.267 10.452-5.522 20.435-11.825 29.063-18.537 42.355,5.59 61.446,17.81 61.446,24.804zm2.681-89.663c1.044,2.52-6.782,15.922-38.342,35.376 2.987-6.849 3.577-13.591 0.966-19.895-2.611-6.302-7.802-10.644-14.753-13.375 36.081-8.555 51.091-4.611 52.129-2.106zm-65.297-61.505c4.947,4.947 0.087,27.09-25.916,60.996-10.847,1.356-22.358,3.957-33.655,7.444-1.127-1.775-2.437-3.425-3.94-4.928-1.504-1.504-3.154-2.813-4.927-3.941 3.479-11.272 6.072-22.782 7.423-33.639 14.882-11.406 29.4-20.046 41.034-24.391 11.553-4.315 17.897-3.625 19.981-1.541zm-61.505-65.297c2.49,1.031 6.446,16.039-2.119,52.162-2.726-6.972-7.065-12.177-13.363-14.786-6.302-2.609-13.066-1.989-19.943,1.042 19.477-31.621 32.896-39.464 35.425-38.418zm-89.662,2.681c6.96,0 19.219,19.091 24.812,61.491-6.734,8.635-13.046,18.61-18.545,29.018-2.042-0.449-4.132-0.691-6.267-0.691-2.134,0-4.224,0.241-6.265,0.69-5.493-10.398-11.807-20.37-18.545-29.006 5.532-41.928 17.986-61.502 24.81-61.502zm-89.663-2.681c0.749-0.305 5.799,0.658 15.245,10.887 6.35,6.878 13.189,16.236 20.151,27.528-6.87-3.025-13.624-3.644-19.914-1.04-6.291,2.606-10.626,7.812-13.349,14.789-8.568-36.228-4.543-51.165-2.133-52.164zm-61.505,65.297c2.092-2.091 8.461-2.776 20.065,1.573 11.625,4.356 26.11,12.984 40.961,24.367 1.347,10.861 3.934,22.371 7.408,33.626-1.767,1.13-3.417,2.44-4.923,3.946-1.507,1.507-2.817,3.158-3.948,4.925-11.722-3.625-23.163-6.154-33.668-7.467-11.403-14.886-20.039-29.408-24.372-41.037-4.295-11.525-3.602-17.853-1.523-19.933zm-65.297,61.505c1.035-2.499 16.04-6.446 52.129,2.109-8.687,3.435-12.82,8.707-14.753,13.373-2.605,6.29-2,13.034 1.003,19.889-11.09-6.84-20.323-13.565-27.174-19.835-10.515-9.623-11.52-14.776-11.205-15.536zm2.682,89.663c0-6.981 19.096-19.218 61.479-24.809 8.633,6.727 18.61,13.036 29.03,18.541-0.45,2.042-0.691,4.133-0.691,6.268s0.241,4.226 0.691,6.268c-10.441,5.516-20.422,11.82-29.052,18.536-41.901-5.536-61.457-18-61.457-24.804zm-2.682,89.662c-1.049-2.532 6.792-15.94 38.362-35.393-3,6.857-3.598,13.607-0.986,19.911 2.611,6.303 7.822,10.641 14.796,13.367-36.105,8.57-51.131,4.629-52.172,2.115zm65.297,61.505c-2.098-2.099-2.779-8.494 1.604-20.149 4.365-11.607 12.97-26.046 24.318-40.855 10.854-1.352 22.368-3.953 33.646-7.434 1.129,1.771 2.439,3.421 3.944,4.926 1.505,1.505 3.152,2.82 4.925,3.948-3.624,11.722-6.152,23.162-7.465,33.666-33.898,25.989-56.038,30.831-60.972,25.898zm79.41,51.415c-11.067,12.92-17.025,14.25-17.905,13.882-2.554-1.058-6.476-16.105 2.096-52.162 3.435,8.709 8.714,12.851 13.386,14.786 2.713,1.124 5.504,1.653 8.355,1.653 3.756,0 7.611-0.937 11.5-2.633-5.964,9.656-11.884,17.997-17.432,24.474zm71.758,11.201c-2.952,0-7.932-4.007-13.056-15.255-5.029-11.04-9.109-26.908-11.585-44.951 0.002-0.448-0.036-0.891-0.113-1.328 6.699-8.614 12.982-18.569 18.481-28.976 2.043,0.45 4.136,0.692 6.272,0.692 2.137,0 4.23-0.242 6.274-0.692 5.725,10.851 12.027,20.728 18.526,29.084-5.538,41.878-17.995,61.426-24.799,61.426zm89.662,2.681c-0.139,0.058-0.312,0.088-0.519,0.088-3.49-0.001-16.468-8.629-34.863-38.456 4.353,1.887 8.216,2.623 11.57,2.622 3.252,0 6.032-0.678 8.329-1.63 6.304-2.611 10.647-7.805 13.378-14.759 8.559,36.074 4.622,51.093 2.105,52.135zm61.505-65.297c-4.935,4.935-27.084,0.089-60.995-25.915-1.355-10.843-3.955-22.35-7.441-33.644 1.771-1.129 3.419-2.446 4.925-3.952 1.504-1.504 2.814-3.155 3.942-4.926 11.275,3.48 22.789,6.081 33.644,7.431 11.411,14.889 20.052,29.415 24.393,41.049 4.305,11.539 3.614,17.875 1.532,19.957zm65.297-61.505c-1.034,2.498-16.052,6.448-52.172-2.12 6.975-2.726 12.187-7.062 14.797-13.362 2.611-6.304 1.988-13.072-1.047-19.952 31.615,19.465 39.476,32.89 38.422,35.434z"/>
</svg>