<?xml version="1.0" encoding="UTF-8"?>
<!DOCTYPE svg PUBLIC "-//W3C//DTD SVG 1.1//EN" "http://www.w3.org/Graphics/SVG/1.1/DTD/svg11.dtd">
<svg version="1.1" xmlns="http://www.w3.org/2000/svg" xmlns:xlink="http://www.w3.org/1999/xlink" x="0" y="0" width="499.995" height="500.001" viewBox="0, 0, 499.995, 500.001">
  <g id="Layer_1">
    <path d="M0,-0 L499.995,-0 L499.995,500.001 L0,500.001 z" fill="#36A0CE" id="path30512"/>
    <path d="M229.266,56.542 C214.493,56.542 202.518,68.517 202.518,83.29 C202.518,84.743 202.639,86.168 202.862,87.558 C190.783,87.952 181.108,97.862 181.108,110.038 C181.108,122.464 191.183,132.536 203.608,132.536 L291.102,132.536 C303.527,132.536 313.602,122.464 313.602,110.038 C313.602,98.672 305.172,89.279 294.225,87.759 C291.646,74.529 279.998,64.542 266.014,64.542 C260.73,64.542 255.783,65.974 251.528,68.462 C246.732,61.277 238.553,56.542 229.266,56.542 z" fill="#FFFFFF" id="path30514"/>
    <path d="M392.266,56.542 C377.493,56.542 365.518,68.517 365.518,83.29 C365.518,84.743 365.639,86.168 365.862,87.558 C353.783,87.952 344.108,97.862 344.108,110.038 C344.108,122.464 354.183,132.536 366.608,132.536 L371.557,132.536 C372.204,143.69 381.45,152.534 392.766,152.534 C395.085,152.534 397.314,152.158 399.403,151.472 C402.608,159.143 410.18,164.534 419.014,164.534 C430.749,164.534 440.262,155.022 440.262,143.286 C448.402,143.286 455.469,138.708 459.038,131.987 C469.088,129.737 476.602,120.768 476.602,110.038 C476.602,98.672 468.172,89.279 457.225,87.759 C454.646,74.529 442.998,64.542 429.014,64.542 C423.73,64.542 418.783,65.974 414.528,68.462 C409.732,61.277 401.553,56.542 392.266,56.542 z" fill="#FFFFFF" id="path30520"/>
    <path d="M70.856,337.368 C58.845,337.368 49.108,347.104 49.108,359.116 C49.108,359.47 49.117,359.821 49.133,360.171 C46.657,359.488 44.053,359.116 41.36,359.116 C25.231,359.116 12.155,372.19 12.155,388.319 C12.155,404.448 25.231,417.524 41.36,417.524 C41.566,417.524 41.77,417.513 41.975,417.509 C42.186,417.515 42.396,417.524 42.608,417.524 L123.01,417.524 C124.966,418.033 127.018,418.306 129.133,418.306 C142.543,418.306 153.415,407.433 153.415,394.024 C153.415,380.615 142.543,369.745 129.133,369.745 C125.059,369.745 121.222,370.753 117.85,372.526 L114.67,372.526 C114.67,361.67 105.87,352.868 95.014,352.868 C93.907,352.868 92.822,352.964 91.764,353.14 C89.167,344.036 80.793,337.368 70.856,337.368 z" fill="#FFFFFF" id="path30532"/>
    <path d="M386.604,337.364 C374.598,337.364 364.86,347.103 364.86,359.118 C364.86,359.214 364.867,359.309 364.868,359.405 C350.663,361.383 339.725,373.57 339.725,388.319 C339.725,404.448 352.801,417.524 368.93,417.524 C369.137,417.524 369.34,417.513 369.546,417.509 C369.756,417.515 369.966,417.524 370.178,417.524 L450.966,417.524 C453.151,418.03 455.423,418.306 457.762,418.306 C474.372,418.306 487.837,404.84 487.837,388.23 C487.837,371.62 474.372,358.155 457.762,358.155 C455.692,358.155 453.672,358.364 451.719,358.763 C448.287,348.987 438.981,341.976 428.032,341.976 C419.489,341.976 411.947,346.247 407.413,352.767 C404.695,343.851 396.409,337.364 386.604,337.364 z" fill="#FFFFFF" id="path30542"/>
    <path d="M229.266,341.528 C214.493,341.528 202.518,353.503 202.518,368.276 C202.518,369.73 202.639,371.155 202.862,372.546 C190.783,372.94 181.108,382.849 181.108,395.024 C181.108,406.468 189.654,415.908 200.709,417.331 C203.678,430.047 215.076,439.521 228.696,439.521 C233.98,439.521 238.927,438.089 243.182,435.601 C247.978,442.786 256.157,447.521 265.444,447.521 C280.217,447.521 292.192,435.545 292.192,420.772 C292.192,419.665 292.116,418.576 291.985,417.503 C304,417.039 313.602,407.154 313.602,395.024 C313.602,383.658 305.172,374.268 294.225,372.747 C291.646,359.516 279.999,349.528 266.014,349.528 C260.73,349.528 255.783,350.96 251.528,353.448 C246.732,346.263 238.553,341.528 229.266,341.528 z" fill="#FFFFFF" id="path30552"/>
    <path d="M407.856,203.05 C400.448,203.05 393.931,206.847 390.127,212.595 C388.982,212.404 387.806,212.3 386.606,212.3 C374.872,212.3 365.358,221.813 365.358,233.548 C365.358,234.022 365.378,234.49 365.409,234.956 C353.541,235.579 344.108,245.399 344.108,257.423 C344.108,269.848 354.183,279.921 366.608,279.921 L454.102,279.921 C466.527,279.921 476.602,269.848 476.602,257.423 C476.602,247.496 470.17,239.076 461.249,236.089 C459.649,225.938 450.863,218.175 440.262,218.175 C436.084,218.175 432.198,219.399 428.913,221.481 C427.533,211.079 418.635,203.05 407.856,203.05 z" fill="#FFFFFF" id="path30562"/>
    <path d="M103.262,52.48 C93.465,52.48 85.221,59.112 82.764,68.13 C79.367,65.826 75.27,64.48 70.856,64.48 C63.447,64.48 56.932,68.276 53.129,74.024 C51.983,73.833 50.809,73.728 49.608,73.728 C39.381,73.728 30.845,80.955 28.819,90.579 C22.118,94.476 17.608,101.728 17.608,110.038 C17.608,122.464 27.683,132.536 40.108,132.536 L127.602,132.536 C140.027,132.536 150.1,122.464 150.1,110.038 C150.1,101.122 144.913,93.418 137.393,89.776 C137.47,89.041 137.51,88.294 137.51,87.538 C137.51,78.386 131.722,70.587 123.608,67.597 C120.976,58.851 112.865,52.48 103.262,52.48 z" fill="#FFFFFF" id="path30570"/>
    <path d="M83.856,203.05 C76.448,203.05 69.93,206.847 66.127,212.595 C64.982,212.404 63.808,212.3 62.608,212.3 C50.873,212.3 41.36,221.813 41.36,233.548 C41.36,234.022 41.38,234.49 41.411,234.956 C29.542,235.578 20.108,245.398 20.108,257.423 C20.108,269.429 29.515,279.238 41.36,279.886 C41.36,279.898 41.36,279.909 41.36,279.921 C41.36,291.655 50.873,301.169 62.608,301.169 C63.886,301.169 65.134,301.051 66.35,300.835 C69.291,309.044 77.136,314.917 86.356,314.917 C96.859,314.917 105.574,307.295 107.29,297.282 C107.394,297.284 107.497,297.29 107.602,297.29 C118.012,297.29 126.667,289.803 128.491,279.921 L130.102,279.921 C142.527,279.921 152.6,269.848 152.6,257.423 C152.6,247.496 146.169,239.077 137.249,236.089 C135.649,225.938 126.863,218.175 116.262,218.175 C112.083,218.175 108.197,219.398 104.911,221.482 C103.531,211.079 94.635,203.05 83.856,203.05 z" fill="#FFFFFF" id="path30580"/>
    <path d="M244.856,198.925 C224.813,198.925 208.528,214.974 208.127,234.923 L203.608,234.923 C191.183,234.923 181.108,244.997 181.108,257.423 C181.108,269.848 191.183,279.921 203.608,279.921 L291.102,279.921 C303.527,279.921 313.602,269.848 313.602,257.423 C313.602,244.997 303.527,234.923 291.102,234.923 L281.584,234.923 C281.183,214.974 264.899,198.925 244.856,198.925 z" fill="#FFFFFF" id="path30594"/>
  </g>
</svg>
