<?xml version='1.0' encoding='iso-8859-1'?>
<!DOCTYPE svg PUBLIC '-//W3C//DTD SVG 1.1//EN' 'http://www.w3.org/Graphics/SVG/1.1/DTD/svg11.dtd'>
<!-- Uploaded to: SVG Repo, www.svgrepo.com, Generator: SVG Repo Mixer Tools -->
<svg fill="#000000" height="800px" width="800px" version="1.1" xmlns="http://www.w3.org/2000/svg" viewBox="0 0 470 470" xmlns:xlink="http://www.w3.org/1999/xlink" enable-background="new 0 0 470 470">
  <path d="m398.233,205.673c-15.757-12.626-40.577-27.069-76.287-33.517 4.665-1.945 9.278-4.126 13.733-6.61 28.167-15.703 43.055-39.454 43.055-68.688 0-26.03-11.397-51.068-32.089-70.5-17.049-16.012-38.792-26.358-55.389-26.358-7.662,0-14.839,3.231-20.208,9.097-2.802,3.061-5.077,6.756-6.831,11.062-8.891-11.92-17.979-20.159-29.221-20.159-11.236,0-20.323,8.239-29.213,20.159-1.754-4.306-4.029-8.001-6.831-11.062-5.369-5.866-12.546-9.097-20.208-9.097-16.598,0-38.34,10.346-55.39,26.358-20.692,19.433-32.089,44.47-32.089,70.5 0,29.233 14.888,52.985 43.055,68.688 4.455,2.484 9.068,4.665 13.733,6.61-35.71,6.448-60.53,20.891-76.287,33.517-26.719,21.411-42.671,50.526-42.671,77.881 0,19.853 8.408,37.59 23.675,49.942 16.187,13.097 39.886,20.019 68.537,20.019h10.712l-.735-10.686c-0.009-0.134-0.383-5.871-0.317-15.091 5.793,6.123 12.355,11.597 19.573,16.27 19.966,12.923 44.986,20.094 74.456,21.406v104.586h20v-104.584c28.785-1.283 53.338-8.159 73.07-20.527 7.754-4.861 14.782-10.636 20.94-17.142 0.076,9.106-0.273,14.819-0.291,15.083l-.735,10.686h10.712c28.651,0 52.351-6.922 68.537-20.019 15.267-12.352 23.675-30.089 23.675-49.942 5.68434e-14-27.356-15.952-56.47-42.671-77.882zm-190.405-36.938c-0.501-0.474-1.051-0.908-1.659-1.279-14.308-8.735-28.792-23.03-28.792-33.451 0-2.778 0.451-5.414 1.237-8 4.114,5.813 9.222,10.726 14.035,15.352 8.689,8.35 16.414,15.79 19.094,27.379h-3.915zm83.558-42.732c0.786,2.586 1.237,5.223 1.237,8 0,10.421-14.484,24.716-28.792,33.451-0.608,0.372-1.158,0.805-1.659,1.279h-3.915c2.68-11.588 10.405-19.029 19.094-27.379 4.813-4.625 9.921-9.538 14.035-15.351zm-5.585-103.403c1.602-1.75 3.386-2.601 5.455-2.601 9.346,0 26.381,6.552 41.698,20.937 9.628,9.042 25.78,28.33 25.78,55.921 0,22.163-10.727,38.917-32.793,51.219-6.86,3.824-14.259,6.885-21.661,9.36 4.878-6.988 8.343-14.941 8.343-23.433 0-15.956-8.057-27.833-15.849-39.319-7.753-11.428-15.075-22.223-16.478-38.085-2.04-23.029 3.17-31.448 5.505-33.999zm-50.797-2.601c5.744,0 16.854,16.952 24.87,29.548 0.069,2.829 0.23,5.762 0.501,8.815 1.796,20.313 10.77,34.145 18.978,46.265-1.387,8.002-7.16,13.946-15.86,22.307-10.222,9.823-22.626,21.746-25.587,41.8h-5.813c-2.961-20.054-15.365-31.977-25.587-41.8-8.7-8.361-14.474-14.305-15.86-22.307 8.209-12.121 17.183-25.951 18.979-46.263 0.27-3.054 0.432-5.987 0.501-8.817 8.017-12.596 19.126-29.548 24.878-29.548zm-123.738,76.858c0-27.592 16.152-46.88 25.78-55.921 15.317-14.385 32.352-20.937 41.698-20.937 2.069,0 3.854,0.851 5.455,2.601 2.335,2.551 7.545,10.971 5.504,34.002-1.402,15.86-8.725,26.655-16.478,38.083-7.792,11.486-15.849,23.363-15.849,39.319 0,8.492 3.465,16.444 8.343,23.433-7.402-2.475-14.801-5.536-21.661-9.36-22.066-12.303-32.792-29.057-32.792-51.22zm-45.915,221.091c-10.634-8.604-16.255-20.497-16.255-34.394 0-21.343 13.15-44.623 35.178-62.274 18.172-14.562 41.405-24.585 67.442-29.357-38.184,41.161-41.15,113.527-40.778,141.239-19.242-1.349-34.867-6.54-45.587-15.214zm169.642,27.705c-29.93,0-54.688-6.203-73.586-18.435-12.331-7.982-21.963-18.328-28.663-30.781 0.746-6.952 1.783-14.318 3.222-21.839 10.631-55.591 34.7-77.414 53.7-85.863h35.328v97.804h0.012 19.988 0.012v-97.804h35.333c39.625,17.541 52.742,69.05 56.881,107.726-12.241,22.702-39.88,49.192-102.227,49.192zm169.656-27.705c-10.721,8.674-26.346,13.865-45.587,15.214 0.372-27.711-2.595-100.078-40.778-141.239 26.037,4.772 49.27,14.795 67.442,29.357 22.027,17.651 35.178,40.931 35.178,62.274 0,13.897-5.621,25.79-16.255,34.394z"/>
</svg>